<svg width="3017" height="1956" viewBox="0 0 3017 1956" fill="none" xmlns="http://www.w3.org/2000/svg">
<mask id="mask0_370_2" style="mask-type:luminance" maskUnits="userSpaceOnUse" x="0" y="0" width="3017" height="1956">
<path d="M3017 0H0V1955.32H3017V0Z" fill="white"/>
</mask>
<g mask="url(#mask0_370_2)">
<path d="M0 1906.44C201.133 1788.42 603.4 1370.82 1005.67 1316.35C1407.93 1261.88 1609.07 1694.15 2011.33 1634.09C2413.6 1574.03 2128.06 1197.78 3017 1173.69V1955.32H0V1906.44Z" fill="#ACACAC" fill-opacity="0.07"/>
<path d="M0 717.026C120.68 800.826 128.725 865.163 370.085 937.789C611.445 1010.42 1565.24 742.066 1761.93 699.954C1520.57 751.631 1708.77 711.336 1761.93 699.954C2003.29 648.278 2397.48 798.323 2638.84 820.669C2880.2 843.016 2845.01 685.276 3017 571.478V1955.32H0V717.026Z" fill="#ACACAC" fill-opacity="0.05"/>
<path d="M0 272.015C120.68 355.814 268.38 403.329 509.74 475.955C751.1 548.581 957.395 218.244 1198.75 272.015C1440.11 325.786 1741.81 426.124 1983.17 374.447C2224.53 322.771 2292.84 174.515 2534.2 196.861C2775.56 219.208 2896.32 250.602 3017 389.569V1955.32H0V272.015Z" fill="#ACACAC" fill-opacity="0.07"/>
<path d="M3017 0H0V1955.32H3017V0Z" fill="white" fill-opacity="0.1"/>
</g>
</svg>
