<svg width="1996" height="2526" viewBox="0 0 1996 2526" fill="none" xmlns="http://www.w3.org/2000/svg">
<g filter="url(#filter0_dd_93_406)">
<path d="M691.473 935.791C696.284 865.576 715.64 827.608 742.052 761.065L784.205 694.503L851.643 619.621L784.2 827.627C784.2 827.627 779.065 858.053 775.772 877.549V927.47V969.072C775.772 977.392 792.632 1002.35 792.632 1002.35L809.495 1027.31L851.643 1068.91L944.374 1127.16C944.374 1127.16 978.097 1143.8 1037.11 1152.12C1096.12 1160.44 1138.27 1160.44 1138.27 1160.44H1188.85L1239.43 1152.12L1298.44 1143.8L1357.45 1135.48H1382.74H1416.46L1467.04 1143.8L1534.48 1160.44L1601.92 1185.4L1669.37 1210.36L1703.09 1227L1736.8 1251.96L1762.09 1285.24C1762.09 1285.24 1778.96 1301.88 1787.39 1326.84C1795.81 1351.8 1787.39 1376.76 1787.39 1376.76L1770.53 1451.65L1719.95 1584.77L1635.65 1709.58L1568.21 1784.46L1526.05 1834.38L1483.9 1884.3L1374.31 1992.46L1256.29 2092.31L1011.82 2267.03L699.901 2500L994.958 2158.87L1129.84 1984.14L1273.15 1751.18L1357.45 1584.77C1357.45 1584.77 1399.6 1518.21 1399.6 1476.61C1399.6 1435.01 1391.17 1410.05 1374.31 1376.76C1357.45 1343.48 1306.87 1326.84 1306.87 1326.84C1306.87 1326.84 1222.57 1276.92 1138.27 1276.92C1053.97 1276.92 952.804 1251.96 952.804 1251.96C907.701 1233.85 885.6 1231.19 851.646 1210.36C806.053 1191.56 782.224 1168.13 742.052 1135.48C720.102 1113.67 711.618 1098.54 699.9 1068.91C691.472 1018.99 687.398 987.775 691.473 935.791Z" fill="#030A8C"/>
</g>
<g filter="url(#filter1_dd_93_406)">
<path d="M1600.68 318.946H1559.03C1567.36 318.946 1592.35 327.296 1592.35 327.296H1625.67L1675.65 318.946C1700.64 310.596 1689.45 315.29 1708.97 302.246L1750.62 268.847L1767.28 235.447C1767.28 215.882 1767.28 218.747 1758.95 193.698C1750.62 168.648 1733.96 143.598 1733.96 143.598L1717.3 118.549L1692.31 93.4989L1650.66 60.0993L1617.34 43.3996L1559.03 26.6998L1475.73 10H1384.1H1334.13L1234.17 18.3499L1159.2 35.0497L1067.57 60.0993L975.939 93.4989L842.661 160.298L717.712 235.447L617.753 310.596L509.465 402.445L384.516 527.693L284.557 652.942L209.588 761.49L126.289 911.788L59.6495 1087.14L26.3299 1195.68L18 1287.53V1345.98V1421.13L26.3299 1462.88L59.6495 1579.78L109.629 1679.98L167.938 1746.78L226.248 1788.53L284.557 1813.58L367.856 1830.28H459.485L542.784 1813.58L659.403 1788.53L809.341 1730.08L934.29 1654.93L1042.58 1554.73L967.609 1621.53L867.651 1679.98L759.362 1730.08L634.413 1755.13H559.444L476.145 1738.43L459.485 1730.08L384.516 1679.98L326.207 1629.88L251.237 1538.03L226.248 1479.58L217.918 1421.13V1379.38V1329.28V1270.83L226.248 1195.68L242.908 1128.89L259.567 1070.44L284.557 1003.64L326.207 895.089L367.856 803.24L417.836 719.741L559.444 552.743L634.413 469.244L692.722 419.145L784.352 343.996L867.651 285.546L942.62 243.797L1067.57 185.348L1184.19 143.598L1334.13 118.549L1409.09 110.199H1484.06L1542.37 118.549L1575.69 135.248L1600.68 160.298L1625.67 193.698L1634 227.097V268.847V285.546L1625.67 302.246L1600.68 318.946Z" fill="#020659"/>
</g>
<g filter="url(#filter2_dd_93_406)">
<path d="M919.849 666.638L944.958 641.918L970.068 633.678H995.177V666.638L986.807 699.598L970.068 740.798L953.328 790.238V823.198V864.398V922.078L961.698 963.278L970.068 996.238L986.807 1020.96L995.177 1045.68L978.437 1070.4L953.328 1062.16L928.219 1037.44L903.109 1004.48L886.37 971.518L861.261 922.078L852.891 872.638V839.678V798.478L861.261 732.558L886.37 691.358L919.849 666.638Z" fill="#EF8800"/>
<path d="M1045.4 559.519C1045.4 559.519 996.298 560.996 995.177 584.239C994.682 594.503 1003.55 608.959 1003.55 608.959L1037.03 617.198L1070.5 633.678L1103.98 650.158L1129.09 666.638L1154.2 683.118L1179.31 699.598L1221.16 724.318C1221.16 724.318 1229.53 732.558 1229.53 740.798C1229.53 749.038 1196.05 757.278 1196.05 757.278L1162.57 765.518L1129.09 773.758L1095.61 781.998L1078.87 790.238C1062.13 798.478 1053.77 806.718 1053.77 806.718V823.198L1070.5 839.678H1129.09H1170.94L1221.16 823.198L1271.38 806.718L1304.86 781.998L1321.6 773.758L1329.97 749.038L1321.6 716.078L1296.49 699.598L1271.38 716.078L1254.64 691.358L1221.16 658.398L1187.68 617.198L1145.83 592.479L1103.98 575.999L1045.4 559.519Z" fill="#EF8800"/>
<path d="M1095.61 946.798L1053.77 922.078L1062.13 979.758L1103.98 1004.48L1154.2 1020.96H1187.68H1229.53L1271.38 1004.48L1296.49 979.758L1321.6 955.038L1329.97 922.078L1304.86 905.598L1271.38 930.318L1221.16 946.798H1154.2H1095.61Z" fill="#EF8800"/>
</g>
<g filter="url(#filter3_dd_93_406)">
<ellipse cx="1771.27" cy="911.553" rx="206.733" ry="188.897" fill="#030A8C"/>
</g>
<defs>
<filter id="filter0_dd_93_406" x="671.88" y="609.621" width="1137.25" height="1916.38" filterUnits="userSpaceOnUse" color-interpolation-filters="sRGB">
<feFlood flood-opacity="0" result="BackgroundImageFix"/>
<feColorMatrix in="SourceAlpha" type="matrix" values="0 0 0 0 0 0 0 0 0 0 0 0 0 0 0 0 0 0 127 0" result="hardAlpha"/>
<feOffset dy="4"/>
<feGaussianBlur stdDeviation="2"/>
<feColorMatrix type="matrix" values="0 0 0 0 0 0 0 0 0 0 0 0 0 0 0 0 0 0 0.3 0"/>
<feBlend mode="normal" in2="BackgroundImageFix" result="effect1_dropShadow_93_406"/>
<feColorMatrix in="SourceAlpha" type="matrix" values="0 0 0 0 0 0 0 0 0 0 0 0 0 0 0 0 0 0 127 0" result="hardAlpha"/>
<feMorphology radius="6" operator="dilate" in="SourceAlpha" result="effect2_dropShadow_93_406"/>
<feOffset dy="8"/>
<feGaussianBlur stdDeviation="6"/>
<feColorMatrix type="matrix" values="0 0 0 0 0 0 0 0 0 0 0 0 0 0 0 0 0 0 0.15 0"/>
<feBlend mode="normal" in2="effect1_dropShadow_93_406" result="effect2_dropShadow_93_406"/>
<feBlend mode="normal" in="SourceGraphic" in2="effect2_dropShadow_93_406" result="shape"/>
</filter>
<filter id="filter1_dd_93_406" x="0" y="0" width="1785.28" height="1856.28" filterUnits="userSpaceOnUse" color-interpolation-filters="sRGB">
<feFlood flood-opacity="0" result="BackgroundImageFix"/>
<feColorMatrix in="SourceAlpha" type="matrix" values="0 0 0 0 0 0 0 0 0 0 0 0 0 0 0 0 0 0 127 0" result="hardAlpha"/>
<feOffset dy="4"/>
<feGaussianBlur stdDeviation="2"/>
<feColorMatrix type="matrix" values="0 0 0 0 0 0 0 0 0 0 0 0 0 0 0 0 0 0 0.3 0"/>
<feBlend mode="normal" in2="BackgroundImageFix" result="effect1_dropShadow_93_406"/>
<feColorMatrix in="SourceAlpha" type="matrix" values="0 0 0 0 0 0 0 0 0 0 0 0 0 0 0 0 0 0 127 0" result="hardAlpha"/>
<feMorphology radius="6" operator="dilate" in="SourceAlpha" result="effect2_dropShadow_93_406"/>
<feOffset dy="8"/>
<feGaussianBlur stdDeviation="6"/>
<feColorMatrix type="matrix" values="0 0 0 0 0 0 0 0 0 0 0 0 0 0 0 0 0 0 0.15 0"/>
<feBlend mode="normal" in2="effect1_dropShadow_93_406" result="effect2_dropShadow_93_406"/>
<feBlend mode="normal" in="SourceGraphic" in2="effect2_dropShadow_93_406" result="shape"/>
</filter>
<filter id="filter2_dd_93_406" x="834.891" y="549.519" width="513.076" height="546.879" filterUnits="userSpaceOnUse" color-interpolation-filters="sRGB">
<feFlood flood-opacity="0" result="BackgroundImageFix"/>
<feColorMatrix in="SourceAlpha" type="matrix" values="0 0 0 0 0 0 0 0 0 0 0 0 0 0 0 0 0 0 127 0" result="hardAlpha"/>
<feOffset dy="4"/>
<feGaussianBlur stdDeviation="2"/>
<feColorMatrix type="matrix" values="0 0 0 0 0 0 0 0 0 0 0 0 0 0 0 0 0 0 0.3 0"/>
<feBlend mode="normal" in2="BackgroundImageFix" result="effect1_dropShadow_93_406"/>
<feColorMatrix in="SourceAlpha" type="matrix" values="0 0 0 0 0 0 0 0 0 0 0 0 0 0 0 0 0 0 127 0" result="hardAlpha"/>
<feMorphology radius="6" operator="dilate" in="SourceAlpha" result="effect2_dropShadow_93_406"/>
<feOffset dy="8"/>
<feGaussianBlur stdDeviation="6"/>
<feColorMatrix type="matrix" values="0 0 0 0 0 0 0 0 0 0 0 0 0 0 0 0 0 0 0.15 0"/>
<feBlend mode="normal" in2="effect1_dropShadow_93_406" result="effect2_dropShadow_93_406"/>
<feBlend mode="normal" in="SourceGraphic" in2="effect2_dropShadow_93_406" result="shape"/>
</filter>
<filter id="filter3_dd_93_406" x="1546.53" y="712.656" width="449.466" height="413.793" filterUnits="userSpaceOnUse" color-interpolation-filters="sRGB">
<feFlood flood-opacity="0" result="BackgroundImageFix"/>
<feColorMatrix in="SourceAlpha" type="matrix" values="0 0 0 0 0 0 0 0 0 0 0 0 0 0 0 0 0 0 127 0" result="hardAlpha"/>
<feOffset dy="4"/>
<feGaussianBlur stdDeviation="2"/>
<feColorMatrix type="matrix" values="0 0 0 0 0 0 0 0 0 0 0 0 0 0 0 0 0 0 0.3 0"/>
<feBlend mode="normal" in2="BackgroundImageFix" result="effect1_dropShadow_93_406"/>
<feColorMatrix in="SourceAlpha" type="matrix" values="0 0 0 0 0 0 0 0 0 0 0 0 0 0 0 0 0 0 127 0" result="hardAlpha"/>
<feMorphology radius="6" operator="dilate" in="SourceAlpha" result="effect2_dropShadow_93_406"/>
<feOffset dy="8"/>
<feGaussianBlur stdDeviation="6"/>
<feColorMatrix type="matrix" values="0 0 0 0 0 0 0 0 0 0 0 0 0 0 0 0 0 0 0.15 0"/>
<feBlend mode="normal" in2="effect1_dropShadow_93_406" result="effect2_dropShadow_93_406"/>
<feBlend mode="normal" in="SourceGraphic" in2="effect2_dropShadow_93_406" result="shape"/>
</filter>
</defs>
</svg>
