<svg width="406" height="567" viewBox="0 0 406 567" fill="none" xmlns="http://www.w3.org/2000/svg">
<g filter="url(#filter0_dd_93_406)">
<path d="M145.135 207.428C146.043 192.454 149.697 184.357 154.683 170.167L162.641 155.972L175.371 140.003L162.64 184.361C162.64 184.361 161.67 190.85 161.049 195.007V205.653V214.525C161.049 216.299 164.232 221.622 164.232 221.622L167.415 226.945L175.371 235.817L192.877 248.237C192.877 248.237 199.243 251.786 210.383 253.56C221.522 255.334 229.479 255.334 229.479 255.334H239.027L248.576 253.56L259.716 251.786L270.855 250.011H275.63H281.996L291.544 251.786L304.275 255.334L317.006 260.657L329.738 265.98L336.103 269.529L342.468 274.852L347.242 281.949C347.242 281.949 350.426 285.498 352.017 290.821C353.608 296.144 352.017 301.467 352.017 301.467L348.834 317.436L339.286 345.825L323.372 372.44L310.641 388.408L302.684 399.054L294.727 409.7L274.039 432.766L251.759 454.058L205.608 491.319L146.726 541L202.426 468.253L227.888 430.992L254.941 381.311L270.855 345.825C270.855 345.825 278.812 331.63 278.812 322.759C278.812 313.887 277.221 308.564 274.038 301.467C270.855 294.369 261.307 290.821 261.307 290.821C261.307 290.821 245.393 280.175 229.479 280.175C213.565 280.175 194.468 274.852 194.468 274.852C185.954 270.99 181.782 270.423 175.372 265.98C166.765 261.97 162.267 256.975 154.683 250.011C150.54 245.361 148.938 242.135 146.726 235.817C145.135 225.171 144.366 218.513 145.135 207.428Z" fill="#030A8C"/>
</g>
<g filter="url(#filter1_dd_93_406)">
<path d="M316.772 75.8837H308.909C310.482 75.8837 315.199 77.6643 315.199 77.6643H321.489L330.924 75.8837C335.641 74.103 333.529 75.1039 337.214 72.3224L345.076 65.1998L348.221 58.0773C348.221 53.905 348.221 54.516 346.649 49.1741C345.076 43.8321 341.931 38.4902 341.931 38.4902L338.786 33.1483L334.069 27.8064L326.207 20.6838L319.917 17.1226L308.909 13.5613L293.184 10H275.887H266.452L247.582 11.7806L233.43 15.3419L216.133 20.6838L198.835 27.8064L173.676 42.0515L150.089 58.0773L131.219 74.103L110.776 93.6901L87.1892 120.4L68.3194 147.109L54.1671 170.258L38.4423 202.309L25.8624 239.702L19.5725 262.851L18 282.438V294.902V310.928L19.5725 319.831L25.8624 344.76L35.2973 366.128L46.3047 380.373L57.3121 389.276L68.3194 394.618L84.0443 398.179H101.342L117.066 394.618L139.081 389.276L167.386 376.812L190.973 360.786L211.415 339.418L197.263 353.663L178.393 366.128L157.951 376.812L134.364 382.154H120.211L104.487 378.592L101.342 376.812L87.1892 366.128L76.1819 355.444L62.0295 335.857L57.3121 323.393L55.7396 310.928V302.025V291.341V278.877L57.3121 262.851L60.457 248.606L63.602 236.141L68.3194 221.896L76.1819 198.748L84.0443 179.161L93.4792 161.354L120.211 125.742L134.364 107.935L145.371 97.2513L162.668 81.2256L178.393 68.7611L192.546 59.8579L216.133 47.3934L238.148 38.4902L266.452 33.1483L280.605 31.3677H294.757L305.764 33.1483L312.054 36.7096L316.772 42.0515L321.489 49.1741L323.062 56.2966V65.1998V68.7611L321.489 72.3224L316.772 75.8837Z" fill="#020659"/>
</g>
<g filter="url(#filter2_dd_93_406)">
<path d="M188.247 150.03L192.987 144.759L197.727 143.001H202.467V150.03L200.887 157.059L197.727 165.845L194.567 176.388V183.417V192.203V204.503L196.147 213.289L197.727 220.318L200.887 225.59L202.467 230.861L199.307 236.133L194.567 234.376L189.827 229.104L185.087 222.075L181.927 215.047L177.187 204.503L175.607 193.96V186.931V178.145L177.187 164.088L181.927 155.302L188.247 150.03Z" fill="#EF8800"/>
<path d="M211.947 127.187C211.947 127.187 202.679 127.502 202.467 132.458C202.374 134.647 204.047 137.73 204.047 137.73L210.367 139.487L216.687 143.001L223.007 146.516L227.747 150.03L232.487 153.545L237.227 157.059L245.127 162.331C245.127 162.331 246.707 164.088 246.707 165.845C246.707 167.602 240.387 169.359 240.387 169.359L234.067 171.117L227.747 172.874L221.427 174.631L218.267 176.388C215.107 178.145 213.527 179.903 213.527 179.903V183.417L216.687 186.931H227.747H235.647L245.127 183.417L254.607 179.903L260.927 174.631L264.087 172.874L265.667 167.602L264.087 160.573L259.347 157.059L254.607 160.573L251.447 155.302L245.127 148.273L238.807 139.487L230.907 134.215L223.007 130.701L211.947 127.187Z" fill="#EF8800"/>
<path d="M221.427 209.775L213.527 204.503L215.107 216.804L223.007 222.075L232.487 225.59H238.807H246.707L254.607 222.075L259.347 216.804L264.087 211.532L265.667 204.503L260.927 200.989L254.607 206.261L245.127 209.775H232.487H221.427Z" fill="#EF8800"/>
</g>
<g filter="url(#filter3_dd_93_406)">
<ellipse cx="348.974" cy="202.259" rx="39.0262" ry="40.2828" fill="#030A8C"/>
</g>
<defs>
<filter id="filter0_dd_93_406" x="126.834" y="130.003" width="243.889" height="436.997" filterUnits="userSpaceOnUse" color-interpolation-filters="sRGB">
<feFlood flood-opacity="0" result="BackgroundImageFix"/>
<feColorMatrix in="SourceAlpha" type="matrix" values="0 0 0 0 0 0 0 0 0 0 0 0 0 0 0 0 0 0 127 0" result="hardAlpha"/>
<feOffset dy="4"/>
<feGaussianBlur stdDeviation="2"/>
<feColorMatrix type="matrix" values="0 0 0 0 0 0 0 0 0 0 0 0 0 0 0 0 0 0 0.3 0"/>
<feBlend mode="normal" in2="BackgroundImageFix" result="effect1_dropShadow_93_406"/>
<feColorMatrix in="SourceAlpha" type="matrix" values="0 0 0 0 0 0 0 0 0 0 0 0 0 0 0 0 0 0 127 0" result="hardAlpha"/>
<feMorphology radius="6" operator="dilate" in="SourceAlpha" result="effect2_dropShadow_93_406"/>
<feOffset dy="8"/>
<feGaussianBlur stdDeviation="6"/>
<feColorMatrix type="matrix" values="0 0 0 0 0 0 0 0 0 0 0 0 0 0 0 0 0 0 0.15 0"/>
<feBlend mode="normal" in2="effect1_dropShadow_93_406" result="effect2_dropShadow_93_406"/>
<feBlend mode="normal" in="SourceGraphic" in2="effect2_dropShadow_93_406" result="shape"/>
</filter>
<filter id="filter1_dd_93_406" x="0" y="0" width="366.221" height="424.179" filterUnits="userSpaceOnUse" color-interpolation-filters="sRGB">
<feFlood flood-opacity="0" result="BackgroundImageFix"/>
<feColorMatrix in="SourceAlpha" type="matrix" values="0 0 0 0 0 0 0 0 0 0 0 0 0 0 0 0 0 0 127 0" result="hardAlpha"/>
<feOffset dy="4"/>
<feGaussianBlur stdDeviation="2"/>
<feColorMatrix type="matrix" values="0 0 0 0 0 0 0 0 0 0 0 0 0 0 0 0 0 0 0.3 0"/>
<feBlend mode="normal" in2="BackgroundImageFix" result="effect1_dropShadow_93_406"/>
<feColorMatrix in="SourceAlpha" type="matrix" values="0 0 0 0 0 0 0 0 0 0 0 0 0 0 0 0 0 0 127 0" result="hardAlpha"/>
<feMorphology radius="6" operator="dilate" in="SourceAlpha" result="effect2_dropShadow_93_406"/>
<feOffset dy="8"/>
<feGaussianBlur stdDeviation="6"/>
<feColorMatrix type="matrix" values="0 0 0 0 0 0 0 0 0 0 0 0 0 0 0 0 0 0 0.15 0"/>
<feBlend mode="normal" in2="effect1_dropShadow_93_406" result="effect2_dropShadow_93_406"/>
<feBlend mode="normal" in="SourceGraphic" in2="effect2_dropShadow_93_406" result="shape"/>
</filter>
<filter id="filter2_dd_93_406" x="157.607" y="117.187" width="126.06" height="144.947" filterUnits="userSpaceOnUse" color-interpolation-filters="sRGB">
<feFlood flood-opacity="0" result="BackgroundImageFix"/>
<feColorMatrix in="SourceAlpha" type="matrix" values="0 0 0 0 0 0 0 0 0 0 0 0 0 0 0 0 0 0 127 0" result="hardAlpha"/>
<feOffset dy="4"/>
<feGaussianBlur stdDeviation="2"/>
<feColorMatrix type="matrix" values="0 0 0 0 0 0 0 0 0 0 0 0 0 0 0 0 0 0 0.3 0"/>
<feBlend mode="normal" in2="BackgroundImageFix" result="effect1_dropShadow_93_406"/>
<feColorMatrix in="SourceAlpha" type="matrix" values="0 0 0 0 0 0 0 0 0 0 0 0 0 0 0 0 0 0 127 0" result="hardAlpha"/>
<feMorphology radius="6" operator="dilate" in="SourceAlpha" result="effect2_dropShadow_93_406"/>
<feOffset dy="8"/>
<feGaussianBlur stdDeviation="6"/>
<feColorMatrix type="matrix" values="0 0 0 0 0 0 0 0 0 0 0 0 0 0 0 0 0 0 0.15 0"/>
<feBlend mode="normal" in2="effect1_dropShadow_93_406" result="effect2_dropShadow_93_406"/>
<feBlend mode="normal" in="SourceGraphic" in2="effect2_dropShadow_93_406" result="shape"/>
</filter>
<filter id="filter3_dd_93_406" x="291.948" y="151.976" width="114.052" height="116.565" filterUnits="userSpaceOnUse" color-interpolation-filters="sRGB">
<feFlood flood-opacity="0" result="BackgroundImageFix"/>
<feColorMatrix in="SourceAlpha" type="matrix" values="0 0 0 0 0 0 0 0 0 0 0 0 0 0 0 0 0 0 127 0" result="hardAlpha"/>
<feOffset dy="4"/>
<feGaussianBlur stdDeviation="2"/>
<feColorMatrix type="matrix" values="0 0 0 0 0 0 0 0 0 0 0 0 0 0 0 0 0 0 0.3 0"/>
<feBlend mode="normal" in2="BackgroundImageFix" result="effect1_dropShadow_93_406"/>
<feColorMatrix in="SourceAlpha" type="matrix" values="0 0 0 0 0 0 0 0 0 0 0 0 0 0 0 0 0 0 127 0" result="hardAlpha"/>
<feMorphology radius="6" operator="dilate" in="SourceAlpha" result="effect2_dropShadow_93_406"/>
<feOffset dy="8"/>
<feGaussianBlur stdDeviation="6"/>
<feColorMatrix type="matrix" values="0 0 0 0 0 0 0 0 0 0 0 0 0 0 0 0 0 0 0.15 0"/>
<feBlend mode="normal" in2="effect1_dropShadow_93_406" result="effect2_dropShadow_93_406"/>
<feBlend mode="normal" in="SourceGraphic" in2="effect2_dropShadow_93_406" result="shape"/>
</filter>
</defs>
</svg>
