<svg width="1252" height="1427" viewBox="0 0 1252 1427" fill="none" xmlns="http://www.w3.org/2000/svg">
<g filter="url(#filter0_dd_93_412)">
<path d="M568.135 645.428C569.043 630.454 572.697 622.357 577.683 608.167L585.641 593.972L598.371 578.003L585.64 622.361C585.64 622.361 584.67 628.85 584.049 633.007V643.653V652.525C584.049 654.299 587.232 659.622 587.232 659.622L590.415 664.945L598.371 673.817L615.877 686.237C615.877 686.237 622.243 689.786 633.383 691.56C644.522 693.334 652.479 693.334 652.479 693.334H662.027L671.576 691.56L682.716 689.786L693.855 688.011H698.63H704.996L714.544 689.786L727.275 693.334L740.006 698.657L752.738 703.98L759.103 707.529L765.468 712.852L770.242 719.949C770.242 719.949 773.426 723.498 775.017 728.821C776.608 734.144 775.017 739.467 775.017 739.467L771.834 755.436L762.286 783.825L746.372 810.44L733.641 826.408L725.684 837.054L717.727 847.7L697.039 870.766L674.759 892.058L628.608 929.319L569.726 979L625.426 906.253L650.888 868.992L677.941 819.311L693.855 783.825C693.855 783.825 701.812 769.63 701.812 760.759C701.812 751.887 700.221 746.564 697.038 739.467C693.855 732.369 684.307 728.821 684.307 728.821C684.307 728.821 668.393 718.175 652.479 718.175C636.565 718.175 617.468 712.852 617.468 712.852C608.954 708.99 604.782 708.423 598.372 703.98C589.765 699.97 585.267 694.975 577.683 688.011C573.54 683.361 571.938 680.135 569.726 673.817C568.135 663.171 567.366 656.513 568.135 645.428Z" fill="#030A8C"/>
</g>
<g filter="url(#filter1_dd_93_412)">
<path d="M739.772 513.884H731.909C733.482 513.884 738.199 515.664 738.199 515.664H744.489L753.924 513.884C758.641 512.103 756.529 513.104 760.214 510.322L768.076 503.2L771.221 496.077C771.221 491.905 771.221 492.516 769.649 487.174C768.076 481.832 764.931 476.49 764.931 476.49L761.786 471.148L757.069 465.806L749.207 458.684L742.917 455.123L731.909 451.561L716.184 448H698.887H689.452L670.582 449.781L656.43 453.342L639.133 458.684L621.835 465.806L596.676 480.052L573.089 496.077L554.219 512.103L533.776 531.69L510.189 558.4L491.319 585.109L477.167 608.258L461.442 640.309L448.862 677.702L442.572 700.851L441 720.438V732.902V748.928L442.572 757.831L448.862 782.76L458.297 804.128L469.305 818.373L480.312 827.276L491.319 832.618L507.044 836.179H524.342L540.066 832.618L562.081 827.276L590.386 814.812L613.973 798.786L634.415 777.418L620.263 791.663L601.393 804.128L580.951 814.812L557.364 820.154H543.211L527.487 816.592L524.342 814.812L510.189 804.128L499.182 793.444L485.03 773.857L480.312 761.393L478.74 748.928V740.025V729.341V716.877L480.312 700.851L483.457 686.606L486.602 674.141L491.319 659.896L499.182 636.748L507.044 617.161L516.479 599.354L543.211 563.742L557.364 545.935L568.371 535.251L585.668 519.226L601.393 506.761L615.546 497.858L639.133 485.393L661.148 476.49L689.452 471.148L703.605 469.368H717.757L728.764 471.148L735.054 474.71L739.772 480.052L744.489 487.174L746.062 494.297V503.2V506.761L744.489 510.322L739.772 513.884Z" fill="#020659"/>
</g>
<g filter="url(#filter2_dd_93_412)">
<path d="M611.247 588.03L615.987 582.759L620.727 581.001H625.467V588.03L623.887 595.059L620.727 603.845L617.567 614.388V621.417V630.203V642.503L619.147 651.289L620.727 658.318L623.887 663.59L625.467 668.861L622.307 674.133L617.567 672.376L612.827 667.104L608.087 660.075L604.927 653.047L600.187 642.503L598.607 631.96V624.931V616.145L600.187 602.088L604.927 593.302L611.247 588.03Z" fill="#EF8800"/>
<path d="M634.947 565.187C634.947 565.187 625.679 565.502 625.467 570.458C625.374 572.647 627.047 575.73 627.047 575.73L633.367 577.487L639.687 581.001L646.007 584.516L650.747 588.03L655.487 591.545L660.227 595.059L668.127 600.331C668.127 600.331 669.707 602.088 669.707 603.845C669.707 605.602 663.387 607.359 663.387 607.359L657.067 609.117L650.747 610.874L644.427 612.631L641.267 614.388C638.107 616.145 636.527 617.903 636.527 617.903V621.417L639.687 624.931H650.747H658.647L668.127 621.417L677.607 617.903L683.927 612.631L687.087 610.874L688.667 605.602L687.087 598.573L682.347 595.059L677.607 598.573L674.447 593.302L668.127 586.273L661.807 577.487L653.907 572.215L646.007 568.701L634.947 565.187Z" fill="#EF8800"/>
<path d="M644.427 647.775L636.527 642.503L638.107 654.804L646.007 660.075L655.487 663.59H661.807H669.707L677.607 660.075L682.347 654.804L687.087 649.532L688.667 642.503L683.927 638.989L677.607 644.261L668.127 647.775H655.487H644.427Z" fill="#EF8800"/>
</g>
<g filter="url(#filter3_dd_93_412)">
<ellipse cx="771.974" cy="640.259" rx="39.0262" ry="40.2828" fill="#030A8C"/>
</g>
<defs>
<filter id="filter0_dd_93_412" x="549.834" y="568.003" width="243.889" height="436.997" filterUnits="userSpaceOnUse" color-interpolation-filters="sRGB">
<feFlood flood-opacity="0" result="BackgroundImageFix"/>
<feColorMatrix in="SourceAlpha" type="matrix" values="0 0 0 0 0 0 0 0 0 0 0 0 0 0 0 0 0 0 127 0" result="hardAlpha"/>
<feOffset dy="4"/>
<feGaussianBlur stdDeviation="2"/>
<feColorMatrix type="matrix" values="0 0 0 0 0 0 0 0 0 0 0 0 0 0 0 0 0 0 0.3 0"/>
<feBlend mode="normal" in2="BackgroundImageFix" result="effect1_dropShadow_93_412"/>
<feColorMatrix in="SourceAlpha" type="matrix" values="0 0 0 0 0 0 0 0 0 0 0 0 0 0 0 0 0 0 127 0" result="hardAlpha"/>
<feMorphology radius="6" operator="dilate" in="SourceAlpha" result="effect2_dropShadow_93_412"/>
<feOffset dy="8"/>
<feGaussianBlur stdDeviation="6"/>
<feColorMatrix type="matrix" values="0 0 0 0 0 0 0 0 0 0 0 0 0 0 0 0 0 0 0.15 0"/>
<feBlend mode="normal" in2="effect1_dropShadow_93_412" result="effect2_dropShadow_93_412"/>
<feBlend mode="normal" in="SourceGraphic" in2="effect2_dropShadow_93_412" result="shape"/>
</filter>
<filter id="filter1_dd_93_412" x="423" y="438" width="366.221" height="424.179" filterUnits="userSpaceOnUse" color-interpolation-filters="sRGB">
<feFlood flood-opacity="0" result="BackgroundImageFix"/>
<feColorMatrix in="SourceAlpha" type="matrix" values="0 0 0 0 0 0 0 0 0 0 0 0 0 0 0 0 0 0 127 0" result="hardAlpha"/>
<feOffset dy="4"/>
<feGaussianBlur stdDeviation="2"/>
<feColorMatrix type="matrix" values="0 0 0 0 0 0 0 0 0 0 0 0 0 0 0 0 0 0 0.3 0"/>
<feBlend mode="normal" in2="BackgroundImageFix" result="effect1_dropShadow_93_412"/>
<feColorMatrix in="SourceAlpha" type="matrix" values="0 0 0 0 0 0 0 0 0 0 0 0 0 0 0 0 0 0 127 0" result="hardAlpha"/>
<feMorphology radius="6" operator="dilate" in="SourceAlpha" result="effect2_dropShadow_93_412"/>
<feOffset dy="8"/>
<feGaussianBlur stdDeviation="6"/>
<feColorMatrix type="matrix" values="0 0 0 0 0 0 0 0 0 0 0 0 0 0 0 0 0 0 0.15 0"/>
<feBlend mode="normal" in2="effect1_dropShadow_93_412" result="effect2_dropShadow_93_412"/>
<feBlend mode="normal" in="SourceGraphic" in2="effect2_dropShadow_93_412" result="shape"/>
</filter>
<filter id="filter2_dd_93_412" x="580.607" y="555.187" width="126.061" height="144.947" filterUnits="userSpaceOnUse" color-interpolation-filters="sRGB">
<feFlood flood-opacity="0" result="BackgroundImageFix"/>
<feColorMatrix in="SourceAlpha" type="matrix" values="0 0 0 0 0 0 0 0 0 0 0 0 0 0 0 0 0 0 127 0" result="hardAlpha"/>
<feOffset dy="4"/>
<feGaussianBlur stdDeviation="2"/>
<feColorMatrix type="matrix" values="0 0 0 0 0 0 0 0 0 0 0 0 0 0 0 0 0 0 0.3 0"/>
<feBlend mode="normal" in2="BackgroundImageFix" result="effect1_dropShadow_93_412"/>
<feColorMatrix in="SourceAlpha" type="matrix" values="0 0 0 0 0 0 0 0 0 0 0 0 0 0 0 0 0 0 127 0" result="hardAlpha"/>
<feMorphology radius="6" operator="dilate" in="SourceAlpha" result="effect2_dropShadow_93_412"/>
<feOffset dy="8"/>
<feGaussianBlur stdDeviation="6"/>
<feColorMatrix type="matrix" values="0 0 0 0 0 0 0 0 0 0 0 0 0 0 0 0 0 0 0.15 0"/>
<feBlend mode="normal" in2="effect1_dropShadow_93_412" result="effect2_dropShadow_93_412"/>
<feBlend mode="normal" in="SourceGraphic" in2="effect2_dropShadow_93_412" result="shape"/>
</filter>
<filter id="filter3_dd_93_412" x="714.948" y="589.976" width="114.052" height="116.565" filterUnits="userSpaceOnUse" color-interpolation-filters="sRGB">
<feFlood flood-opacity="0" result="BackgroundImageFix"/>
<feColorMatrix in="SourceAlpha" type="matrix" values="0 0 0 0 0 0 0 0 0 0 0 0 0 0 0 0 0 0 127 0" result="hardAlpha"/>
<feOffset dy="4"/>
<feGaussianBlur stdDeviation="2"/>
<feColorMatrix type="matrix" values="0 0 0 0 0 0 0 0 0 0 0 0 0 0 0 0 0 0 0.3 0"/>
<feBlend mode="normal" in2="BackgroundImageFix" result="effect1_dropShadow_93_412"/>
<feColorMatrix in="SourceAlpha" type="matrix" values="0 0 0 0 0 0 0 0 0 0 0 0 0 0 0 0 0 0 127 0" result="hardAlpha"/>
<feMorphology radius="6" operator="dilate" in="SourceAlpha" result="effect2_dropShadow_93_412"/>
<feOffset dy="8"/>
<feGaussianBlur stdDeviation="6"/>
<feColorMatrix type="matrix" values="0 0 0 0 0 0 0 0 0 0 0 0 0 0 0 0 0 0 0.15 0"/>
<feBlend mode="normal" in2="effect1_dropShadow_93_412" result="effect2_dropShadow_93_412"/>
<feBlend mode="normal" in="SourceGraphic" in2="effect2_dropShadow_93_412" result="shape"/>
</filter>
</defs>
</svg>
