<svg width="1899" height="1912" viewBox="0 0 1899 1912" fill="none" xmlns="http://www.w3.org/2000/svg">
<g filter="url(#filter0_dd_93_412)">
<path d="M833.271 826.38C835.087 797.758 842.395 782.282 852.366 755.157L868.281 728.024L893.743 697.5L868.28 782.289C868.28 782.289 866.341 794.692 865.098 802.639V822.988V839.946C865.098 843.338 871.463 853.513 871.463 853.513L877.83 863.688L893.743 880.646L928.754 904.387C928.754 904.387 941.486 911.17 963.765 914.562C986.045 917.953 1001.96 917.953 1001.96 917.953H1021.05L1040.15 914.562L1062.43 911.17L1084.71 907.778H1094.26H1106.99L1126.09 911.17L1151.55 917.953L1177.01 928.128L1202.48 938.303L1215.21 945.086L1227.94 955.261L1237.48 968.827C1237.48 968.827 1243.85 975.61 1247.03 985.785C1250.22 995.96 1247.03 1006.13 1247.03 1006.13L1240.67 1036.66L1221.57 1090.92L1189.74 1141.8L1164.28 1172.32L1148.37 1192.67L1132.45 1213.02L1091.08 1257.11L1046.52 1297.81L954.216 1369.04L836.452 1464L947.851 1324.94L998.776 1253.72L1052.88 1158.76L1084.71 1090.92C1084.71 1090.92 1100.62 1063.79 1100.62 1046.83C1100.62 1029.88 1097.44 1019.7 1091.08 1006.13C1084.71 992.568 1065.61 985.785 1065.61 985.785C1065.61 985.785 1033.79 965.435 1001.96 965.435C970.13 965.435 931.936 955.261 931.936 955.261C914.908 947.879 906.563 946.795 893.744 938.303C876.53 930.638 867.533 921.089 852.366 907.778C844.079 898.89 840.876 892.723 836.452 880.646C833.27 860.296 831.732 847.571 833.271 826.38Z" fill="#030A8C"/>
</g>
<g filter="url(#filter1_dd_93_412)">
<path d="M1176.54 574.936H1160.82C1163.96 574.936 1173.4 578.339 1173.4 578.339H1185.98L1204.85 574.936C1214.28 571.532 1210.06 573.445 1217.43 568.128L1233.15 554.514L1239.44 540.899C1239.44 532.924 1239.44 534.092 1236.3 523.881C1233.15 513.67 1226.86 503.459 1226.86 503.459L1220.57 493.248L1211.14 483.037L1195.41 469.422L1182.83 462.615L1160.82 455.807L1129.37 449H1094.77H1075.9L1038.16 452.404L1009.86 459.211L975.266 469.422L940.671 483.037L890.352 510.266L843.177 540.899L805.438 571.532L764.553 608.973L717.378 660.028L679.639 711.083L651.334 755.33L619.885 816.596L594.725 888.073L582.145 932.321L579 969.762V993.587V1024.22L582.145 1041.24L594.725 1088.89L613.595 1129.73L635.609 1156.96L657.624 1173.98L679.639 1184.19L711.089 1191H745.683L777.133 1184.19L821.162 1173.98L877.772 1150.16L924.946 1119.52L965.831 1078.68L937.526 1105.91L899.786 1129.73L858.902 1150.16L811.727 1160.37H783.423L751.973 1153.56L745.683 1150.16L717.378 1129.73L695.364 1109.31L667.059 1071.87L657.624 1048.05L654.479 1024.22V1007.2V986.78V962.954L657.624 932.321L663.914 905.092L670.204 881.266L679.639 854.037L695.364 809.789L711.089 772.349L729.958 738.312L783.423 670.239L811.727 636.202L833.742 615.78L868.337 585.147L899.786 561.321L928.091 544.303L975.266 520.477L1019.3 503.459L1075.9 493.248L1104.21 489.844H1132.51L1154.53 493.248L1167.11 500.055L1176.54 510.266L1185.98 523.881L1189.12 537.495V554.514V561.321L1185.98 568.128L1176.54 574.936Z" fill="#020659"/>
</g>
<g filter="url(#filter2_dd_93_412)">
<path d="M919.494 716.666L928.974 706.59L938.454 703.231H947.934V716.666L944.774 730.102L938.454 746.896L932.134 767.049V780.485V797.279V820.791L935.294 837.586L938.454 851.021L944.774 861.098L947.934 871.174L941.614 881.251L932.134 877.892L922.654 867.816L913.174 854.38L906.854 840.945L897.374 820.791L894.214 800.638V787.203V770.408L897.374 743.537L906.854 726.743L919.494 716.666Z" fill="#EF8800"/>
<path d="M966.894 673.001C966.894 673.001 948.357 673.603 947.934 683.078C947.747 687.262 951.094 693.154 951.094 693.154L963.734 696.513L976.374 703.231L989.014 709.949L998.494 716.666L1007.97 723.384L1017.45 730.102L1033.25 740.178C1033.25 740.178 1036.41 743.537 1036.41 746.896C1036.41 750.255 1023.77 753.614 1023.77 753.614L1011.13 756.973L998.494 760.332L985.854 763.691L979.534 767.049C973.214 770.408 970.054 773.767 970.054 773.767V780.485L976.374 787.203H998.494H1014.29L1033.25 780.485L1052.21 773.767L1064.85 763.691L1071.17 760.332L1074.33 750.255L1071.17 736.82L1061.69 730.102L1052.21 736.82L1045.89 726.743L1033.25 713.307L1020.61 696.513L1004.81 686.436L989.014 679.719L966.894 673.001Z" fill="#EF8800"/>
<path d="M985.854 830.868L970.054 820.791L973.214 844.303L989.014 854.38L1007.97 861.098H1020.61H1036.41L1052.21 854.38L1061.69 844.303L1071.17 834.227L1074.33 820.791L1064.85 814.074L1052.21 824.15L1033.25 830.868H1007.97H985.854Z" fill="#EF8800"/>
</g>
<g filter="url(#filter3_dd_93_412)">
<ellipse cx="1240.95" cy="816.5" rx="78.0523" ry="77" fill="#030A8C"/>
</g>
<defs>
<filter id="filter0_dd_93_412" x="814.669" y="687.5" width="451.779" height="802.5" filterUnits="userSpaceOnUse" color-interpolation-filters="sRGB">
<feFlood flood-opacity="0" result="BackgroundImageFix"/>
<feColorMatrix in="SourceAlpha" type="matrix" values="0 0 0 0 0 0 0 0 0 0 0 0 0 0 0 0 0 0 127 0" result="hardAlpha"/>
<feOffset dy="4"/>
<feGaussianBlur stdDeviation="2"/>
<feColorMatrix type="matrix" values="0 0 0 0 0 0 0 0 0 0 0 0 0 0 0 0 0 0 0.3 0"/>
<feBlend mode="normal" in2="BackgroundImageFix" result="effect1_dropShadow_93_412"/>
<feColorMatrix in="SourceAlpha" type="matrix" values="0 0 0 0 0 0 0 0 0 0 0 0 0 0 0 0 0 0 127 0" result="hardAlpha"/>
<feMorphology radius="6" operator="dilate" in="SourceAlpha" result="effect2_dropShadow_93_412"/>
<feOffset dy="8"/>
<feGaussianBlur stdDeviation="6"/>
<feColorMatrix type="matrix" values="0 0 0 0 0 0 0 0 0 0 0 0 0 0 0 0 0 0 0.15 0"/>
<feBlend mode="normal" in2="effect1_dropShadow_93_412" result="effect2_dropShadow_93_412"/>
<feBlend mode="normal" in="SourceGraphic" in2="effect2_dropShadow_93_412" result="shape"/>
</filter>
<filter id="filter1_dd_93_412" x="561" y="439" width="696.443" height="778" filterUnits="userSpaceOnUse" color-interpolation-filters="sRGB">
<feFlood flood-opacity="0" result="BackgroundImageFix"/>
<feColorMatrix in="SourceAlpha" type="matrix" values="0 0 0 0 0 0 0 0 0 0 0 0 0 0 0 0 0 0 127 0" result="hardAlpha"/>
<feOffset dy="4"/>
<feGaussianBlur stdDeviation="2"/>
<feColorMatrix type="matrix" values="0 0 0 0 0 0 0 0 0 0 0 0 0 0 0 0 0 0 0.3 0"/>
<feBlend mode="normal" in2="BackgroundImageFix" result="effect1_dropShadow_93_412"/>
<feColorMatrix in="SourceAlpha" type="matrix" values="0 0 0 0 0 0 0 0 0 0 0 0 0 0 0 0 0 0 127 0" result="hardAlpha"/>
<feMorphology radius="6" operator="dilate" in="SourceAlpha" result="effect2_dropShadow_93_412"/>
<feOffset dy="8"/>
<feGaussianBlur stdDeviation="6"/>
<feColorMatrix type="matrix" values="0 0 0 0 0 0 0 0 0 0 0 0 0 0 0 0 0 0 0.15 0"/>
<feBlend mode="normal" in2="effect1_dropShadow_93_412" result="effect2_dropShadow_93_412"/>
<feBlend mode="normal" in="SourceGraphic" in2="effect2_dropShadow_93_412" result="shape"/>
</filter>
<filter id="filter2_dd_93_412" x="876.214" y="663.001" width="216.121" height="244.25" filterUnits="userSpaceOnUse" color-interpolation-filters="sRGB">
<feFlood flood-opacity="0" result="BackgroundImageFix"/>
<feColorMatrix in="SourceAlpha" type="matrix" values="0 0 0 0 0 0 0 0 0 0 0 0 0 0 0 0 0 0 127 0" result="hardAlpha"/>
<feOffset dy="4"/>
<feGaussianBlur stdDeviation="2"/>
<feColorMatrix type="matrix" values="0 0 0 0 0 0 0 0 0 0 0 0 0 0 0 0 0 0 0.3 0"/>
<feBlend mode="normal" in2="BackgroundImageFix" result="effect1_dropShadow_93_412"/>
<feColorMatrix in="SourceAlpha" type="matrix" values="0 0 0 0 0 0 0 0 0 0 0 0 0 0 0 0 0 0 127 0" result="hardAlpha"/>
<feMorphology radius="6" operator="dilate" in="SourceAlpha" result="effect2_dropShadow_93_412"/>
<feOffset dy="8"/>
<feGaussianBlur stdDeviation="6"/>
<feColorMatrix type="matrix" values="0 0 0 0 0 0 0 0 0 0 0 0 0 0 0 0 0 0 0.15 0"/>
<feBlend mode="normal" in2="effect1_dropShadow_93_412" result="effect2_dropShadow_93_412"/>
<feBlend mode="normal" in="SourceGraphic" in2="effect2_dropShadow_93_412" result="shape"/>
</filter>
<filter id="filter3_dd_93_412" x="1144.9" y="729.5" width="192.104" height="190" filterUnits="userSpaceOnUse" color-interpolation-filters="sRGB">
<feFlood flood-opacity="0" result="BackgroundImageFix"/>
<feColorMatrix in="SourceAlpha" type="matrix" values="0 0 0 0 0 0 0 0 0 0 0 0 0 0 0 0 0 0 127 0" result="hardAlpha"/>
<feOffset dy="4"/>
<feGaussianBlur stdDeviation="2"/>
<feColorMatrix type="matrix" values="0 0 0 0 0 0 0 0 0 0 0 0 0 0 0 0 0 0 0.3 0"/>
<feBlend mode="normal" in2="BackgroundImageFix" result="effect1_dropShadow_93_412"/>
<feColorMatrix in="SourceAlpha" type="matrix" values="0 0 0 0 0 0 0 0 0 0 0 0 0 0 0 0 0 0 127 0" result="hardAlpha"/>
<feMorphology radius="6" operator="dilate" in="SourceAlpha" result="effect2_dropShadow_93_412"/>
<feOffset dy="8"/>
<feGaussianBlur stdDeviation="6"/>
<feColorMatrix type="matrix" values="0 0 0 0 0 0 0 0 0 0 0 0 0 0 0 0 0 0 0.15 0"/>
<feBlend mode="normal" in2="effect1_dropShadow_93_412" result="effect2_dropShadow_93_412"/>
<feBlend mode="normal" in="SourceGraphic" in2="effect2_dropShadow_93_412" result="shape"/>
</filter>
</defs>
</svg>
