<svg xmlns="http://www.w3.org/2000/svg" width="300.512" height="123.136" viewBox="0 0 300.512 123.136"><g transform="translate(-3.615 -1682.938)"><g transform="translate(3.615 1702.226)"><path d="M-741.041,458.025h4.475v49.73h-7.817V482.961l-6.321,16.98h-4.544l-6.323-16.979v24.794h-7.815V458.025h4.476l11.935,27.565Z" transform="translate(769.385 -457.459)" fill="#0b1223"/><path d="M-690.679,507.89a11.6,11.6,0,0,1-8.241-2.913q-3.553-3.41-3.552-9.307V469.244q0-5.9,3.552-9.307a11.609,11.609,0,0,1,8.241-2.912,11.594,11.594,0,0,1,8.241,2.912q3.552,3.41,3.552,9.307V495.67q0,5.9-3.552,9.307A11.6,11.6,0,0,1-690.679,507.89Zm0-43.052a4.2,4.2,0,0,0-2.913.853q-1.065,1-1.065,3.552v26.426q0,2.558,1.065,3.552a4.19,4.19,0,0,0,2.913.853,4.039,4.039,0,0,0,2.912-.853q1.066-.922,1.065-3.552V469.242q0-2.627-1.065-3.552A4.037,4.037,0,0,0-690.679,464.837Z" transform="translate(740.335 -457.025)" fill="#0b1223"/><path d="M-628.5,507.755h-7.957l-4.049-19.963h-3.552v19.963h-7.815v-49.73h11.793a11.6,11.6,0,0,1,8.241,2.984q3.551,3.268,3.552,9.235v5.328q0,6.039-3.552,9.307a7.493,7.493,0,0,1-1.137.923Zm-7.6-37.51a4.9,4.9,0,0,0-1.065-3.552,4.2,4.2,0,0,0-2.913-.852h-3.978v14.137h3.978a4.2,4.2,0,0,0,2.913-.853q1.065-.994,1.065-3.552Z" transform="translate(718.37 -457.459)" fill="#0b1223"/><path d="M-592,507.89a11.6,11.6,0,0,1-8.241-2.913q-3.553-3.41-3.552-9.307v-6.462h7.815v6.464q0,2.558,1.066,3.552a4.19,4.19,0,0,0,2.913.853,4.037,4.037,0,0,0,2.912-.853q1.066-.922,1.066-3.552v-3.126a7.489,7.489,0,0,0-2.629-5.684,23.042,23.042,0,0,0-2.983-1.847,27.688,27.688,0,0,1-4.9-3.126,15.764,15.764,0,0,1-3.908-5.186,14.677,14.677,0,0,1-1.35-6.252v-1.208q0-5.9,3.552-9.307A11.611,11.611,0,0,1-592,457.026a11.6,11.6,0,0,1,8.241,2.912q3.551,3.41,3.552,9.307v4.334h-7.815v-4.334q0-2.627-1.066-3.552a4.034,4.034,0,0,0-2.912-.853,4.2,4.2,0,0,0-2.913.853q-1.066,1-1.066,3.552v1.208a7.27,7.27,0,0,0,2.628,5.613,22.263,22.263,0,0,0,2.773,1.7,28.63,28.63,0,0,1,5.115,3.268,14.833,14.833,0,0,1,5.257,11.509v3.126q0,5.9-3.552,9.307A11.615,11.615,0,0,1-592,507.89Z" transform="translate(697.495 -457.025)" fill="#0b1223"/><path d="M-539.16,481.612l10.016,26.143h-8.384l-6.039-15.913-2.7,6.18v9.733h-7.815v-49.73h7.815V478.2l8.667-20.176h8.455Z" transform="translate(675.913 -457.459)" fill="#0b1223"/><path d="M-503.357,507.755v-49.73h7.815v49.73Z" transform="translate(653.891 -457.459)" fill="#0b1223"/></g><path d="M0,0H129.651V37.105H0Z" transform="translate(3.833 1768.418)" fill="#2d529c"/><g transform="translate(145.921 1682.938)"><path d="M-485.466,536.071q0,5.259-2.191,7.3-1.9,1.754-5.989,1.754-4.239,0-6.136-1.754-2.047-1.9-2.045-7.3V523.362H-517.9v12.709q0,12.127,7.3,19.137,6.426,5.991,16.946,5.989,10.223,0,16.945-5.989,7.3-7.3,7.3-19.137v-78.3h-16.07Z" transform="translate(517.898 -438.061)" fill="#2d529c"/><path d="M-412.827,560.027h42.364v-16.07h-26.295V515.617h18.114v-16.07h-18.114V473.839h26.294v-16.07h-42.364Z" transform="translate(472.283 -438.06)" fill="#2d529c"/><path d="M-275.638,442.575h-8.427l4.414-.629-9.686-.157,9.3-2.729-9.93,1.274,9.064-4.251-9.773,2.816-.019.006.017-.011,8.41-5.715-9.207,4.324-.531.248.419-.409,7.271-7.112-8.3,5.88-.726.514.509-.729,5.814-8.346-7.056,7.325-.377.392.226-.495,4.266-9.233-5.664,8.447-.487.726.212-.849,2.469-9.866-3.991,9.354-.089.208.019-.226.813-10.139-2.4,9.885-.01.036v-.038l-.8-10.139-.8,10.139,0,.038-.008-.036-2.4-9.885.815,10.139.017.226-.089-.208L-306.349,424l2.469,9.866.212.849-.487-.726-5.664-8.447,4.266,9.233.226.495-.377-.392-7.053-7.328,5.812,8.346.509.729-.724-.514-8.3-5.88,7.27,7.112.42.409-.532-.248-9.2-4.324,8.41,5.715.017.011-.019-.006-9.773-2.816,9.064,4.251-9.93-1.274,9.3,2.729-9.686.157,4.414.629h-8.571v16.22H-297.7l-26.587,86.039h48.647V528.619h-26.587Z" transform="translate(433.843 -422.938)" fill="#2d529c"/></g></g></svg>