<svg width="500" height="580" viewBox="0 0 500 580" fill="none" xmlns="http://www.w3.org/2000/svg">
<rect x="0.00244141" y="-0.00012207" width="499.998" height="579.999" fill="white"/>
<path opacity="0.6" d="M102 157.85C84.4996 225.141 0 157.85 0 157.85V0H499.998V157.85C499.998 157.85 492.998 195.583 429.498 157.85C365.998 120.117 375.498 106.91 339.498 157.85C303.499 208.79 256.999 191.81 211.499 157.85C165.999 123.89 119.499 90.5594 102 157.85Z" fill="url(#paint0_linear_56_29)"/>
<g opacity="0.5">
<g filter="url(#filter0_i_56_29)">
<path d="M218.584 256.75C219.07 249.305 221.028 245.28 223.698 238.225L227.961 231.167L234.78 223.228L227.96 245.282C227.96 245.282 227.441 248.508 227.108 250.575V255.868V260.278C227.108 261.16 228.813 263.807 228.813 263.807L230.518 266.453L234.78 270.864L244.156 277.039C244.156 277.039 247.566 278.803 253.533 279.686C259.5 280.568 263.762 280.568 263.762 280.568H268.876L273.991 279.686L279.958 278.803L285.924 277.921H288.482H291.892L297.006 278.803L303.825 280.568L310.644 283.214L317.464 285.861L320.874 287.625L324.283 290.271L326.84 293.8C326.84 293.8 328.545 295.564 329.398 298.211C330.25 300.857 329.398 303.503 329.398 303.503L327.693 311.443L322.579 325.557L314.054 338.789L307.235 346.729L302.973 352.022L298.711 357.314L289 367.5L281.5 369L277 370L273.5 371L268.5 372.5L262.5 374.5L256.5 377L277.4 343.2L285.924 325.557C285.924 325.557 290.187 318.5 290.187 314.089C290.187 309.679 289.334 307.032 287.629 303.503C285.924 299.975 280.81 298.211 280.81 298.211C280.81 298.211 272.286 292.918 263.762 292.918C255.238 292.918 245.009 290.271 245.009 290.271C240.448 288.351 238.213 288.069 234.78 285.861C230.17 283.867 227.76 281.383 223.698 277.921C221.479 275.609 220.621 274.005 219.436 270.864C218.584 265.571 218.172 262.261 218.584 256.75Z" fill="#020147"/>
</g>
<g filter="url(#filter1_dd_56_29)">
<path d="M310.519 191.349H306.307C307.15 191.349 309.677 192.235 309.677 192.235H313.046L318.099 191.349C320.626 190.464 319.495 190.962 321.469 189.579L325.68 186.038L327.364 182.497C327.364 180.422 327.364 180.726 326.522 178.07C325.68 175.414 323.995 172.758 323.995 172.758L322.311 170.102L319.784 167.447L315.573 163.905L312.203 162.135L306.307 160.364L297.885 158.594H288.62H283.566L273.458 159.479L265.878 161.25L256.613 163.905L247.348 167.447L233.871 174.529L221.237 182.497L211.13 190.464L200.18 200.202L187.546 213.482L177.438 226.761L169.858 238.27L161.435 254.205L154.697 272.796L151.328 284.305L150.485 294.043V300.24V308.207L151.328 312.634L154.697 325.028L159.75 335.651L165.646 342.734L171.542 347.16L177.438 349.816L185.861 351.586H195.126L203.549 349.816L215.341 347.16L230.502 340.963L243.136 332.995L254.086 322.372L246.505 329.454L236.398 335.651L225.448 340.963L212.814 343.619H205.234L196.811 341.848L195.126 340.963L187.546 335.651L181.65 330.34L174.069 320.601L171.542 314.404L170.7 308.207V303.781V298.469V292.272L171.542 284.305L173.227 277.222L174.912 271.025L177.438 263.943L181.65 252.434L185.861 242.696L190.915 233.843L205.234 216.137L212.814 207.285L218.71 201.973L227.975 194.005L236.398 187.808L243.979 183.382L256.613 177.185L268.405 172.758L283.566 170.102L291.146 169.217H298.727L304.623 170.102L307.992 171.873L310.519 174.529L313.046 178.07L313.888 181.611V186.038V187.808L313.046 189.579L310.519 191.349Z" fill="#378BAF"/>
</g>
<g filter="url(#filter2_dd_56_29)">
<path d="M241.675 228.212L244.214 225.591L246.753 224.718H249.292V228.212L248.446 231.707L246.753 236.075L245.061 241.317V244.811V249.179V255.295L245.907 259.663L246.753 263.158L248.446 265.778L249.292 268.399L247.599 271.02L245.061 270.147L242.522 267.526L239.983 264.031L238.29 260.537L235.751 255.295L234.905 250.053V246.558V242.19L235.751 235.201L238.29 230.833L241.675 228.212Z" fill="#EF8800"/>
<path d="M254.37 216.855C254.37 216.855 249.405 217.011 249.292 219.476C249.242 220.564 250.138 222.097 250.138 222.097L253.524 222.97L256.909 224.718L260.294 226.465L262.833 228.212L265.372 229.959L267.911 231.707L272.143 234.328C272.143 234.328 272.989 235.201 272.989 236.075C272.989 236.948 269.604 237.822 269.604 237.822L266.218 238.696L262.833 239.569L259.448 240.443L257.755 241.317C256.063 242.19 255.216 243.064 255.216 243.064V244.811L256.909 246.558H262.833H267.065L272.143 244.811L277.22 243.064L280.606 240.443L282.298 239.569L283.145 236.948L282.298 233.454L279.759 231.707L277.22 233.454L275.528 230.833L272.143 227.338L268.757 222.97L264.526 220.349L260.294 218.602L254.37 216.855Z" fill="#EF8800"/>
<path d="M259.448 257.916L255.216 255.295L256.063 261.41L260.294 264.031L265.372 265.778H268.757H272.989L277.22 264.031L279.759 261.41L282.298 258.789L283.145 255.295L280.606 253.548L277.22 256.168L272.143 257.916H265.372H259.448Z" fill="#EF8800"/>
</g>
<g filter="url(#filter3_dd_56_29)">
<ellipse cx="327.767" cy="254.179" rx="20.9039" ry="20.0275" fill="#020147"/>
</g>
</g>
<path opacity="0.7" d="M110.11 402C48.7176 342 0 373 0 402V580H499.997V402C499.997 402 448.5 456 407.906 402C367.311 348 252.943 358 223.222 402C193.501 446 171.502 462 110.11 402Z" fill="url(#paint1_linear_56_29)"/>
<defs>
<filter id="filter0_i_56_29" x="218.423" y="223.228" width="111.354" height="157.772" filterUnits="userSpaceOnUse" color-interpolation-filters="sRGB">
<feFlood flood-opacity="0" result="BackgroundImageFix"/>
<feBlend mode="normal" in="SourceGraphic" in2="BackgroundImageFix" result="shape"/>
<feColorMatrix in="SourceAlpha" type="matrix" values="0 0 0 0 0 0 0 0 0 0 0 0 0 0 0 0 0 0 127 0" result="hardAlpha"/>
<feOffset dy="4"/>
<feGaussianBlur stdDeviation="2"/>
<feComposite in2="hardAlpha" operator="arithmetic" k2="-1" k3="1"/>
<feColorMatrix type="matrix" values="0 0 0 0 0 0 0 0 0 0 0 0 0 0 0 0 0 0 0.25 0"/>
<feBlend mode="normal" in2="shape" result="effect1_innerShadow_56_29"/>
</filter>
<filter id="filter1_dd_56_29" x="132.485" y="148.594" width="212.879" height="228.993" filterUnits="userSpaceOnUse" color-interpolation-filters="sRGB">
<feFlood flood-opacity="0" result="BackgroundImageFix"/>
<feColorMatrix in="SourceAlpha" type="matrix" values="0 0 0 0 0 0 0 0 0 0 0 0 0 0 0 0 0 0 127 0" result="hardAlpha"/>
<feOffset dy="4"/>
<feGaussianBlur stdDeviation="2"/>
<feColorMatrix type="matrix" values="0 0 0 0 0 0 0 0 0 0 0 0 0 0 0 0 0 0 0.3 0"/>
<feBlend mode="normal" in2="BackgroundImageFix" result="effect1_dropShadow_56_29"/>
<feColorMatrix in="SourceAlpha" type="matrix" values="0 0 0 0 0 0 0 0 0 0 0 0 0 0 0 0 0 0 127 0" result="hardAlpha"/>
<feMorphology radius="6" operator="dilate" in="SourceAlpha" result="effect2_dropShadow_56_29"/>
<feOffset dy="8"/>
<feGaussianBlur stdDeviation="6"/>
<feColorMatrix type="matrix" values="0 0 0 0 0 0 0 0 0 0 0 0 0 0 0 0 0 0 0.15 0"/>
<feBlend mode="normal" in2="effect1_dropShadow_56_29" result="effect2_dropShadow_56_29"/>
<feBlend mode="normal" in="SourceGraphic" in2="effect2_dropShadow_56_29" result="shape"/>
</filter>
<filter id="filter2_dd_56_29" x="216.905" y="206.855" width="84.2397" height="90.1654" filterUnits="userSpaceOnUse" color-interpolation-filters="sRGB">
<feFlood flood-opacity="0" result="BackgroundImageFix"/>
<feColorMatrix in="SourceAlpha" type="matrix" values="0 0 0 0 0 0 0 0 0 0 0 0 0 0 0 0 0 0 127 0" result="hardAlpha"/>
<feOffset dy="4"/>
<feGaussianBlur stdDeviation="2"/>
<feColorMatrix type="matrix" values="0 0 0 0 0 0 0 0 0 0 0 0 0 0 0 0 0 0 0.3 0"/>
<feBlend mode="normal" in2="BackgroundImageFix" result="effect1_dropShadow_56_29"/>
<feColorMatrix in="SourceAlpha" type="matrix" values="0 0 0 0 0 0 0 0 0 0 0 0 0 0 0 0 0 0 127 0" result="hardAlpha"/>
<feMorphology radius="6" operator="dilate" in="SourceAlpha" result="effect2_dropShadow_56_29"/>
<feOffset dy="8"/>
<feGaussianBlur stdDeviation="6"/>
<feColorMatrix type="matrix" values="0 0 0 0 0 0 0 0 0 0 0 0 0 0 0 0 0 0 0.15 0"/>
<feBlend mode="normal" in2="effect1_dropShadow_56_29" result="effect2_dropShadow_56_29"/>
<feBlend mode="normal" in="SourceGraphic" in2="effect2_dropShadow_56_29" result="shape"/>
</filter>
<filter id="filter3_dd_56_29" x="288.863" y="224.151" width="77.8076" height="76.0551" filterUnits="userSpaceOnUse" color-interpolation-filters="sRGB">
<feFlood flood-opacity="0" result="BackgroundImageFix"/>
<feColorMatrix in="SourceAlpha" type="matrix" values="0 0 0 0 0 0 0 0 0 0 0 0 0 0 0 0 0 0 127 0" result="hardAlpha"/>
<feOffset dy="4"/>
<feGaussianBlur stdDeviation="2"/>
<feColorMatrix type="matrix" values="0 0 0 0 0 0 0 0 0 0 0 0 0 0 0 0 0 0 0.3 0"/>
<feBlend mode="normal" in2="BackgroundImageFix" result="effect1_dropShadow_56_29"/>
<feColorMatrix in="SourceAlpha" type="matrix" values="0 0 0 0 0 0 0 0 0 0 0 0 0 0 0 0 0 0 127 0" result="hardAlpha"/>
<feMorphology radius="6" operator="dilate" in="SourceAlpha" result="effect2_dropShadow_56_29"/>
<feOffset dy="8"/>
<feGaussianBlur stdDeviation="6"/>
<feColorMatrix type="matrix" values="0 0 0 0 0 0 0 0 0 0 0 0 0 0 0 0 0 0 0.15 0"/>
<feBlend mode="normal" in2="effect1_dropShadow_56_29" result="effect2_dropShadow_56_29"/>
<feBlend mode="normal" in="SourceGraphic" in2="effect2_dropShadow_56_29" result="shape"/>
</filter>
<linearGradient id="paint0_linear_56_29" x1="249.999" y1="0" x2="249.999" y2="190" gradientUnits="userSpaceOnUse">
<stop stop-color="#BDBCBC"/>
<stop offset="1" stop-color="#2E2E2E"/>
</linearGradient>
<linearGradient id="paint1_linear_56_29" x1="249.999" y1="580" x2="249.999" y2="365.155" gradientUnits="userSpaceOnUse">
<stop stop-color="#378BAF"/>
<stop offset="1" stop-color="#020147"/>
</linearGradient>
</defs>
</svg>
