<svg width="2731" height="1991" viewBox="0 0 2731 1991" fill="none" xmlns="http://www.w3.org/2000/svg">
<g opacity="0.5">
<g filter="url(#filter0_dd_240_24)">
<path d="M1167.49 736.877C1171.14 681.748 1185.83 651.938 1205.88 599.693L1237.88 547.432L1289.06 488.639L1237.87 651.953C1237.87 651.953 1233.98 675.842 1231.48 691.149V730.344V763.007C1231.48 769.539 1244.27 789.137 1244.27 789.137L1257.07 808.735L1289.06 841.398L1359.45 887.126C1359.45 887.126 1385.05 900.191 1429.84 906.723C1474.63 913.256 1506.62 913.256 1506.62 913.256H1545.02L1583.41 906.723L1628.2 900.191L1672.99 893.658H1692.19H1717.79L1756.18 900.191L1807.37 913.256L1858.56 932.854L1909.75 952.451L1935.35 965.517L1960.94 985.114L1980.13 1011.24C1980.13 1011.24 1992.93 1024.31 1999.33 1043.91C2005.73 1063.51 1999.33 1083.1 1999.33 1083.1L1986.54 1141.9L1948.14 1246.42L1884.16 1344.41L1832.97 1403.2L1800.97 1442.39L1768.98 1481.59L1685.79 1566.51L1596.21 1644.9L1410.64 1782.09L1173.89 1965L1397.85 1697.16L1500.23 1559.98L1609.01 1377.07L1672.99 1246.42C1672.99 1246.42 1704.99 1194.16 1704.99 1161.49C1704.99 1128.83 1698.59 1109.23 1685.79 1083.1C1672.99 1056.97 1634.6 1043.91 1634.6 1043.91C1634.6 1043.91 1570.61 1004.71 1506.62 1004.71C1442.64 1004.71 1365.85 985.114 1365.85 985.114C1331.62 970.897 1314.84 968.809 1289.07 952.451C1254.46 937.688 1236.37 919.296 1205.88 893.658C1189.22 876.538 1182.78 864.66 1173.89 841.398C1167.49 802.202 1164.4 777.692 1167.49 736.877Z" fill="#001F3F"/>
</g>
<g filter="url(#filter1_dd_240_24)">
<path d="M1857.62 252.566H1826C1832.33 252.566 1851.29 259.122 1851.29 259.122H1876.59L1914.52 252.566C1933.49 246.01 1925 249.695 1939.81 239.454L1971.43 213.231L1984.07 187.007C1984.07 171.646 1984.07 173.896 1977.75 154.228C1971.43 134.561 1958.78 114.893 1958.78 114.893L1946.14 95.2258L1927.17 75.5583L1895.55 49.335L1870.26 36.2233L1826 23.1117L1762.78 10H1693.23H1655.29L1579.42 16.5558L1522.51 29.6675L1452.96 49.335L1383.41 75.5583L1282.25 128.005L1187.41 187.007L1111.53 246.01L1029.34 318.124L934.496 416.462L858.623 514.799L801.719 600.025L738.491 718.03L687.909 855.702L662.618 940.928L656.295 1013.04V1058.93V1117.94L662.618 1150.71L687.909 1242.5L725.846 1321.17L770.105 1373.61L814.364 1406.39L858.623 1426.06L921.851 1439.17H991.401L1054.63 1426.06L1143.15 1406.39L1256.96 1360.5L1351.8 1301.5L1433.99 1222.83L1377.09 1275.28L1301.22 1321.17L1219.02 1360.5L1124.18 1380.17H1067.27L1004.05 1367.06L991.401 1360.5L934.496 1321.17L890.237 1281.83L833.332 1209.72L814.364 1163.83L808.041 1117.94V1085.16V1045.82V999.931L814.364 940.928L827.01 888.482L839.655 842.591L858.623 790.144L890.237 704.918L921.851 632.804L959.787 567.246L1067.27 436.129L1124.18 370.571L1168.44 331.236L1237.99 272.233L1301.22 226.342L1358.12 193.563L1452.96 147.672L1541.48 114.893L1655.29 95.2258L1712.19 88.67H1769.1L1813.36 95.2258L1838.65 108.337L1857.62 128.005L1876.59 154.228L1882.91 180.452V213.231V226.342L1876.59 239.454L1857.62 252.566Z" fill="#378BAF"/>
</g>
<g filter="url(#filter2_dd_240_24)">
<path d="M1340.84 525.555L1359.9 506.146L1378.96 499.676H1398.02V525.555L1391.66 551.433L1378.96 583.78L1366.25 622.598V648.476V680.824V726.11L1372.6 758.458L1378.96 784.336L1391.66 803.745L1398.02 823.154L1385.31 842.562L1366.25 836.093L1347.19 816.684L1328.13 790.806L1315.43 764.928L1296.37 726.11L1290.02 687.293V661.415V629.067L1296.37 577.311L1315.43 544.963L1340.84 525.555Z" fill="#EF8800"/>
<path d="M1436.13 441.45C1436.13 441.45 1398.87 442.61 1398.02 460.859C1397.64 468.918 1404.37 480.268 1404.37 480.268L1429.78 486.737L1455.19 499.676L1480.61 512.615L1499.66 525.555L1518.72 538.494L1537.78 551.433L1569.55 570.841C1569.55 570.841 1575.9 577.311 1575.9 583.78C1575.9 590.25 1550.49 596.72 1550.49 596.72L1525.08 603.189L1499.66 609.659L1474.25 616.128L1461.55 622.598C1448.84 629.067 1442.49 635.537 1442.49 635.537V648.476L1455.19 661.415H1499.66H1531.43L1569.55 648.476L1607.67 635.537L1633.08 616.128L1645.78 609.659L1652.14 590.25L1645.78 564.372L1626.72 551.433L1607.67 564.372L1594.96 544.963L1569.55 519.085L1544.14 486.737L1512.37 467.329L1480.61 454.39L1436.13 441.45Z" fill="#EF8800"/>
<path d="M1474.25 745.519L1442.49 726.11L1448.84 771.397L1480.61 790.806L1518.72 803.745H1544.14H1575.9L1607.67 790.806L1626.72 771.397L1645.78 751.989L1652.14 726.11L1633.08 713.171L1607.67 732.58L1569.55 745.519H1518.72H1474.25Z" fill="#EF8800"/>
</g>
<g filter="url(#filter3_dd_240_24)">
<ellipse cx="1987.1" cy="717.846" rx="156.919" ry="148.31" fill="#001F3F"/>
</g>
</g>
<defs>
<filter id="filter0_dd_240_24" x="1148.28" y="478.639" width="871.896" height="1512.36" filterUnits="userSpaceOnUse" color-interpolation-filters="sRGB">
<feFlood flood-opacity="0" result="BackgroundImageFix"/>
<feColorMatrix in="SourceAlpha" type="matrix" values="0 0 0 0 0 0 0 0 0 0 0 0 0 0 0 0 0 0 127 0" result="hardAlpha"/>
<feOffset dy="4"/>
<feGaussianBlur stdDeviation="2"/>
<feColorMatrix type="matrix" values="0 0 0 0 0 0 0 0 0 0 0 0 0 0 0 0 0 0 0.3 0"/>
<feBlend mode="normal" in2="BackgroundImageFix" result="effect1_dropShadow_240_24"/>
<feColorMatrix in="SourceAlpha" type="matrix" values="0 0 0 0 0 0 0 0 0 0 0 0 0 0 0 0 0 0 127 0" result="hardAlpha"/>
<feMorphology radius="6" operator="dilate" in="SourceAlpha" result="effect2_dropShadow_240_24"/>
<feOffset dy="8"/>
<feGaussianBlur stdDeviation="6"/>
<feColorMatrix type="matrix" values="0 0 0 0 0 0 0 0 0 0 0 0 0 0 0 0 0 0 0.15 0"/>
<feBlend mode="normal" in2="effect1_dropShadow_240_24" result="effect2_dropShadow_240_24"/>
<feBlend mode="normal" in="SourceGraphic" in2="effect2_dropShadow_240_24" result="shape"/>
</filter>
<filter id="filter1_dd_240_24" x="638.295" y="0" width="1363.78" height="1465.17" filterUnits="userSpaceOnUse" color-interpolation-filters="sRGB">
<feFlood flood-opacity="0" result="BackgroundImageFix"/>
<feColorMatrix in="SourceAlpha" type="matrix" values="0 0 0 0 0 0 0 0 0 0 0 0 0 0 0 0 0 0 127 0" result="hardAlpha"/>
<feOffset dy="4"/>
<feGaussianBlur stdDeviation="2"/>
<feColorMatrix type="matrix" values="0 0 0 0 0 0 0 0 0 0 0 0 0 0 0 0 0 0 0.3 0"/>
<feBlend mode="normal" in2="BackgroundImageFix" result="effect1_dropShadow_240_24"/>
<feColorMatrix in="SourceAlpha" type="matrix" values="0 0 0 0 0 0 0 0 0 0 0 0 0 0 0 0 0 0 127 0" result="hardAlpha"/>
<feMorphology radius="6" operator="dilate" in="SourceAlpha" result="effect2_dropShadow_240_24"/>
<feOffset dy="8"/>
<feGaussianBlur stdDeviation="6"/>
<feColorMatrix type="matrix" values="0 0 0 0 0 0 0 0 0 0 0 0 0 0 0 0 0 0 0.15 0"/>
<feBlend mode="normal" in2="effect1_dropShadow_240_24" result="effect2_dropShadow_240_24"/>
<feBlend mode="normal" in="SourceGraphic" in2="effect2_dropShadow_240_24" result="shape"/>
</filter>
<filter id="filter2_dd_240_24" x="1272.02" y="431.45" width="398.121" height="437.112" filterUnits="userSpaceOnUse" color-interpolation-filters="sRGB">
<feFlood flood-opacity="0" result="BackgroundImageFix"/>
<feColorMatrix in="SourceAlpha" type="matrix" values="0 0 0 0 0 0 0 0 0 0 0 0 0 0 0 0 0 0 127 0" result="hardAlpha"/>
<feOffset dy="4"/>
<feGaussianBlur stdDeviation="2"/>
<feColorMatrix type="matrix" values="0 0 0 0 0 0 0 0 0 0 0 0 0 0 0 0 0 0 0.3 0"/>
<feBlend mode="normal" in2="BackgroundImageFix" result="effect1_dropShadow_240_24"/>
<feColorMatrix in="SourceAlpha" type="matrix" values="0 0 0 0 0 0 0 0 0 0 0 0 0 0 0 0 0 0 127 0" result="hardAlpha"/>
<feMorphology radius="6" operator="dilate" in="SourceAlpha" result="effect2_dropShadow_240_24"/>
<feOffset dy="8"/>
<feGaussianBlur stdDeviation="6"/>
<feColorMatrix type="matrix" values="0 0 0 0 0 0 0 0 0 0 0 0 0 0 0 0 0 0 0.15 0"/>
<feBlend mode="normal" in2="effect1_dropShadow_240_24" result="effect2_dropShadow_240_24"/>
<feBlend mode="normal" in="SourceGraphic" in2="effect2_dropShadow_240_24" result="shape"/>
</filter>
<filter id="filter3_dd_240_24" x="1812.18" y="559.535" width="349.838" height="332.62" filterUnits="userSpaceOnUse" color-interpolation-filters="sRGB">
<feFlood flood-opacity="0" result="BackgroundImageFix"/>
<feColorMatrix in="SourceAlpha" type="matrix" values="0 0 0 0 0 0 0 0 0 0 0 0 0 0 0 0 0 0 127 0" result="hardAlpha"/>
<feOffset dy="4"/>
<feGaussianBlur stdDeviation="2"/>
<feColorMatrix type="matrix" values="0 0 0 0 0 0 0 0 0 0 0 0 0 0 0 0 0 0 0.3 0"/>
<feBlend mode="normal" in2="BackgroundImageFix" result="effect1_dropShadow_240_24"/>
<feColorMatrix in="SourceAlpha" type="matrix" values="0 0 0 0 0 0 0 0 0 0 0 0 0 0 0 0 0 0 127 0" result="hardAlpha"/>
<feMorphology radius="6" operator="dilate" in="SourceAlpha" result="effect2_dropShadow_240_24"/>
<feOffset dy="8"/>
<feGaussianBlur stdDeviation="6"/>
<feColorMatrix type="matrix" values="0 0 0 0 0 0 0 0 0 0 0 0 0 0 0 0 0 0 0.15 0"/>
<feBlend mode="normal" in2="effect1_dropShadow_240_24" result="effect2_dropShadow_240_24"/>
<feBlend mode="normal" in="SourceGraphic" in2="effect2_dropShadow_240_24" result="shape"/>
</filter>
</defs>
</svg>
